<?xml version="1.0" encoding="UTF-8"?>
<svg id="light" xmlns="http://www.w3.org/2000/svg" viewBox="0 0 1024 1024">
  <defs>
    <style>
      .cls-1 {
        fill: #27130f;
      }

      .cls-2 {
        fill: #946039;
      }

      .cls-3 {
        fill: #ce161c;
      }
    </style>
  </defs>
  <g>
    <path class="cls-3" d="m765.3,790.63h-101.32l-12.67-12.67v-50.66c0-20.95,17.04-38,38-38h126.65l12.67,12.67v25.33c0,34.92-28.41,63.32-63.33,63.32Zm-88.66-25.33h88.66c20.95,0,38-17.04,38-37.99v-12.67h-113.99c-6.98,0-12.67,5.68-12.67,12.67v37.99Z"/>
    <path class="cls-3" d="m752.63,613.32h0v227.97c0,13.98-11.35,25.33-25.33,25.33h0v-227.97c0-13.98,11.35-25.33,25.33-25.33Z" transform="translate(1479.94 1479.94) rotate(180)"/>
  </g>
  <path class="cls-1" d="m765.29,157.38h-506.6c-34.91,0-63.32,28.41-63.32,63.32v506.6c0,34.92,28.41,63.33,63.32,63.33h367.29v-25.33h-367.29c-20.95,0-37.99-17.05-37.99-38V220.7c0-20.95,17.04-37.99,37.99-37.99h506.6c20.95,0,38,17.04,38,37.99v443.28h25.33V220.7c0-34.91-28.41-63.32-63.33-63.32Z"/>
  <circle class="cls-2" cx="392.1" cy="353.69" r="19"/>
  <rect class="cls-3" x="398.44" y="499.33" width="227.55" height="37.99" rx="19" ry="19"/>
  <rect class="cls-3" x="398.44" y="575.32" width="227.55" height="37.99" rx="19" ry="19"/>
  <path class="cls-3" d="m565.26,353.69c-6.7,6.7-12.93,12.93-19,19h-90.83c-10.49,0-19-8.51-19-19,0-5.24,2.13-10,5.57-13.43,3.43-3.44,8.19-5.57,13.43-5.57h90.83l19,19Z"/>
  <path class="cls-1" d="m495.59,284.03l69.66,69.66c-10.62,10.62-20.1,20.1-29.57,29.58-7.23,7.22-14.46,14.45-22.17,22.17l-43.17,43.23h98.66c28.75,0,55.79,11.2,76.12,31.53,20.33,20.33,31.53,47.37,31.53,76.13s-11.2,55.78-31.53,76.12c-20.32,20.33-47.35,31.53-76.12,31.53h-195.89c-13.97,0-25.33-11.36-25.33-25.33v-329.29c0-13.97,11.36-25.33,25.33-25.33h122.49m10.49-25.33h-132.98c-27.98,0-50.66,22.69-50.66,50.66v329.29c0,27.98,22.68,50.66,50.66,50.66h195.89c36.72,0,69.97-14.88,94.03-38.95s38.95-57.31,38.95-94.03c0-73.45-59.54-132.99-132.98-132.99h-37.56c7.71-7.72,14.93-14.94,22.15-22.15,14.47-14.48,28.94-28.95,47.49-47.5l-94.99-94.99h0Z"/>
</svg>